HIERARCHY
ROOT Model_Hips
{
	OFFSET 0.000000 96.915077 0.000000
	CHANNELS 6 Xposition Yposition Zposition Xrotation Yrotation Zrotation
	JOINT Model_Spine
	{
		OFFSET 0.000000 11.137703 -1.289900
		CHANNELS 3 Xrotation Yrotation Zrotation
		JOINT Model_Spine1
		{
			OFFSET 0.000000 12.993942 -1.504922
			CHANNELS 3 Xrotation Yrotation Zrotation
			JOINT Model_Spine2
			{
				OFFSET 0.000000 14.850220 -1.719911
				CHANNELS 3 Xrotation Yrotation Zrotation
				JOINT Model_Neck
				{
					OFFSET 0.000000 16.706543 -1.934903
					CHANNELS 3 Xrotation Yrotation Zrotation
					JOINT Model_Head
					{
						OFFSET 0.000000 10.471298 2.002100
						CHANNELS 3 Xrotation Yrotation Zrotation
						JOINT Model_HeadTop_End
						{
							OFFSET 0.000000 20.842606 3.985100
							CHANNELS 3 Xrotation Yrotation Zrotation
							End Site
							{
								OFFSET 0.000000 21.220154 0.000000
							}
						}
					}
				}
				JOINT Model_LeftShoulder
				{
					OFFSET 7.008500 14.768600 -1.919946
					CHANNELS 3 Xrotation Yrotation Zrotation
					JOINT Model_LeftArm
					{
						OFFSET 14.126271 -3.718048 0.029937
						CHANNELS 3 Xrotation Yrotation Zrotation
						JOINT Model_LeftForeArm
						{
							OFFSET 28.282801 0.000000 0.000000
							CHANNELS 3 Xrotation Yrotation Zrotation
							JOINT Model_LeftHand
							{
								OFFSET 26.204689 0.000000 0.000000
								CHANNELS 3 Xrotation Yrotation Zrotation
								End Site
								{
									OFFSET 26.204704 0.000000 0.000000
								}
							}
						}
					}
				}
				JOINT Model_RightShoulder
				{
					OFFSET -7.008500 14.768555 -1.949840
					CHANNELS 3 Xrotation Yrotation Zrotation
					JOINT Model_RightArm
					{
						OFFSET -14.126281 -3.718018 -0.029932
						CHANNELS 3 Xrotation Yrotation Zrotation
						JOINT Model_RightForeArm
						{
							OFFSET -28.283798 0.000000 -0.000001
							CHANNELS 3 Xrotation Yrotation Zrotation
							JOINT Model_RightHand
							{
								OFFSET -26.204193 0.000000 -0.000001
								CHANNELS 3 Xrotation Yrotation Zrotation
								End Site
								{
									OFFSET -26.204208 0.000000 -0.000001
								}
							}
						}
					}
				}
			}
		}
	}
	JOINT Model_LeftUpLeg
	{
		OFFSET 8.327700 -6.193199 -0.402800
		CHANNELS 3 Xrotation Yrotation Zrotation
		JOINT Model_LeftLeg
		{
			OFFSET 0.735802 -42.108742 -0.610721
			CHANNELS 3 Xrotation Yrotation Zrotation
			JOINT Model_LeftFoot
			{
				OFFSET -0.735806 -36.833748 -0.172876
				CHANNELS 3 Xrotation Yrotation Zrotation
				JOINT Model_LeftToeBase
				{
					OFFSET -0.565857 -11.977769 16.297714
					CHANNELS 3 Xrotation Yrotation Zrotation
					JOINT Model_LeftToe_End
					{
						OFFSET -0.111712 -0.312793 7.857784
						CHANNELS 3 Xrotation Yrotation Zrotation
						End Site
						{
							OFFSET -0.111712 -0.312793 7.857784
						}
					}
				}
			}
		}
	}
	JOINT Model_RightUpLeg
	{
		OFFSET -8.327700 -6.193199 -0.516500
		CHANNELS 3 Xrotation Yrotation Zrotation
		JOINT Model_RightLeg
		{
			OFFSET -0.735785 -42.108738 -0.434061
			CHANNELS 3 Xrotation Yrotation Zrotation
			JOINT Model_RightFoot
			{
				OFFSET 0.735776 -36.833748 -0.021630
				CHANNELS 3 Xrotation Yrotation Zrotation
				JOINT Model_RightToeBase
				{
					OFFSET 0.565817 -11.977745 15.903093
					CHANNELS 3 Xrotation Yrotation Zrotation
					JOINT Model_RightToe_End
					{
						OFFSET 0.111702 -0.312791 7.811342
						CHANNELS 3 Xrotation Yrotation Zrotation
						End Site
						{
							OFFSET 0.111702 -0.312791 7.811342
						}
					}
				}
			}
		}
	}
}
MOTION
Frames: 10
Frame Time: 0.016667
0.191895 95.954277 0.742339 -1.521340 -0.108251 -1.075313 0.968056 -0.127227 0.023446 1.020917 -2.478266 0.146191 1.015813 -2.474655 0.189377 -2.750130 0.880339 -1.427500 -2.767889 0.838613 -1.453772 -0.000001 0.000000 0.000000 -0.356743 7.381304 -0.457863 2.460131 -24.543409 -70.534674 -0.000007 -29.295043 -0.000001 0.000001 0.000002 -0.000001 0.994796 2.418258 -3.714709 -2.712707 25.494579 74.914990 0.000017 27.096030 -0.000008 0.000002 -0.000000 0.000000 -8.179986 4.167462 2.367418 23.693004 9.330631 0.930190 -13.658808 2.818191 -3.727248 -0.464202 -0.000006 0.000001 0.000000 -0.000002 -0.000000 -8.559990 -13.510053 -6.065400 18.781704 -4.117475 -1.372705 -7.832805 -4.532835 6.660898 -0.000023 -0.000001 0.000003 0.000000 -0.000001 0.000000 
0.280411 95.936928 0.721681 -1.532840 -0.117623 -1.124910 0.987570 -0.119925 0.018429 1.057125 -2.469146 0.140261 1.052307 -2.465540 0.184186 -2.737768 0.869343 -1.402611 -2.755558 0.828769 -1.428353 -0.000000 0.000000 -0.000000 -0.351099 7.310141 -0.438756 2.422261 -24.625422 -70.560068 0.000020 -29.285286 0.000030 -0.000001 0.000001 -0.000001 1.019476 2.547978 -3.635944 -2.708939 25.542934 74.849051 0.000012 27.130054 -0.000015 0.000002 0.000002 -0.000001 -8.269217 4.189038 2.378411 23.885962 9.304122 0.904720 -13.766119 2.826884 -3.661728 -0.453959 0.000003 0.000001 0.000000 -0.000002 -0.000000 -8.586016 -13.560104 -6.075989 18.803719 -4.129225 -1.401402 -7.805869 -4.468846 6.728900 -0.000024 -0.000006 -0.000001 0.000000 -0.000001 0.000000 
0.367460 95.920982 0.706933 -1.544313 -0.123690 -1.172790 1.005585 -0.112424 0.012862 1.090837 -2.458689 0.133591 1.086331 -2.455101 0.178215 -2.719586 0.858653 -1.378089 -2.737428 0.819190 -1.403294 -0.000000 0.000000 -0.000000 -0.347687 7.241341 -0.396500 2.381475 -24.672192 -70.608126 0.000015 -29.273006 -0.000007 -0.000000 0.000000 -0.000001 1.041381 2.663771 -3.569398 -2.709004 25.573142 74.800598 0.000015 27.156040 -0.000015 0.000001 -0.000000 0.000000 -8.347229 4.211378 2.389357 24.063591 9.271689 0.877323 -13.869199 2.836690 -3.594420 -0.445727 0.000004 0.000002 0.000000 -0.000001 -0.000000 -8.601890 -13.609588 -6.085684 18.814835 -4.145903 -1.430309 -7.777905 -4.404644 6.797870 -0.000042 -0.000001 -0.000003 0.000000 -0.000001 0.000000 
0.453333 95.906433 0.697109 -1.556391 -0.127349 -1.218968 1.022456 -0.104846 0.006956 1.122669 -2.447225 0.126332 1.118492 -2.443657 0.171632 -2.696453 0.848538 -1.354664 -2.714311 0.810114 -1.379331 0.000000 -0.000000 -0.000000 -0.345477 7.203729 -0.372725 2.356456 -24.698674 -70.626751 0.000011 -29.258898 0.000016 0.000000 0.000001 0.000000 1.056416 2.745045 -3.527781 -2.714575 25.607966 74.790244 -0.000011 27.173853 0.000025 -0.000000 0.000002 -0.000001 -8.414401 4.233368 2.399807 24.226970 9.234948 0.847981 -13.968010 2.847981 -3.525377 -0.439673 -0.000001 -0.000001 0.000000 -0.000002 -0.000000 -8.607705 -13.657645 -6.094567 18.814861 -4.166918 -1.459356 -7.748004 -4.340531 6.867643 -0.000103 -0.000002 -0.000003 0.000000 -0.000001 0.000000 
0.537210 95.894646 0.694852 -1.570959 -0.128167 -1.261717 1.037830 -0.097371 0.000713 1.152103 -2.434466 0.118244 1.148283 -2.430926 0.164211 -2.665845 0.840058 -1.334942 -2.683743 0.802494 -1.359111 0.000000 0.000000 0.000000 -0.343836 7.179552 -0.357072 2.339398 -24.712683 -70.632236 -0.000012 -29.243540 -0.000027 -0.000002 0.000002 -0.000001 1.068334 2.810027 -3.498029 -2.721728 25.644060 74.798050 0.000014 27.188318 -0.000002 -0.000000 -0.000001 -0.000000 -8.460441 4.252389 2.408273 24.363307 9.193518 0.814966 -14.057689 2.862866 -3.453489 -0.439529 -0.000007 -0.000000 0.000000 -0.000000 -0.000000 -8.595276 -13.700990 -6.102238 18.795513 -4.195070 -1.488567 -7.713926 -4.277561 6.938648 -0.000047 -0.000013 -0.000002 0.000000 -0.000001 0.000000 
0.614017 95.891884 0.720465 -1.591767 -0.116921 -1.293255 1.047208 -0.089858 -0.007188 1.171784 -2.416464 0.106957 1.168415 -2.412982 0.153511 -2.609015 0.836067 -1.325154 -2.626914 0.798821 -1.348950 -0.000000 0.000000 -0.000001 -0.342593 7.167140 -0.350659 2.331231 -24.713323 -70.623200 -0.000002 -29.226721 -0.000014 -0.000001 0.000001 -0.000001 1.077420 2.859353 -3.479058 -2.728946 25.682133 74.823022 -0.000016 27.200610 0.000018 0.000003 0.000000 -0.000001 -8.440947 4.264869 2.411570 24.418256 9.131060 0.770221 -14.122974 2.889167 -3.372932 -0.446647 0.000003 0.000002 0.000000 -0.000001 -0.000000 -8.521034 -13.731656 -6.105416 18.709954 -4.248382 -1.518463 -7.667041 -4.217041 7.014504 -0.000072 0.000004 0.000001 0.000000 0.000001 0.000000 
0.687669 95.888763 0.746454 -1.615745 -0.104386 -1.320749 1.057277 -0.082823 -0.015705 1.192767 -2.399687 0.094549 1.189893 -2.396272 0.141761 -2.548789 0.833576 -1.319648 -2.566685 0.796474 -1.343119 -0.000000 -0.000000 0.000000 -0.341489 7.162119 -0.352786 2.331799 -24.700218 -70.601043 -0.000014 -29.208197 -0.000012 -0.000001 -0.000001 0.000001 1.084420 2.896055 -3.468226 -2.733888 25.722248 74.861523 0.000018 27.212621 -0.000014 -0.000001 -0.000003 0.000002 -8.415146 4.257072 2.411405 24.470814 9.084735 0.719921 -14.186410 2.915046 -3.295110 -0.454509 0.000004 0.000001 0.000000 -0.000001 -0.000000 -8.448070 -13.758344 -6.111902 18.635261 -4.294659 -1.547241 -7.627205 -4.167293 7.087783 0.000004 0.000011 -0.000005 0.000000 -0.000002 0.000000 
0.758307 95.883942 0.772595 -1.642320 -0.090088 -1.345586 1.068002 -0.075908 -0.025122 1.214972 -2.383567 0.080850 1.212648 -2.380219 0.128781 -2.484438 0.831701 -1.316151 -2.502309 0.794663 -1.339317 -0.000000 -0.000000 -0.000000 -0.340192 7.157643 -0.360846 2.339938 -24.672656 -70.569672 -0.000009 -29.187765 -0.000014 0.000000 0.000002 0.000001 1.090521 2.925469 -3.460741 -2.733707 25.763503 74.907614 0.000008 27.226852 0.000020 -0.000001 0.000001 -0.000000 -8.388920 4.221634 2.407632 24.532310 9.062468 0.665069 -14.253519 2.939975 -3.223194 -0.462995 0.000001 -0.000000 -0.000000 -0.000002 -0.000000 -8.381568 -13.780652 -6.121278 18.581560 -4.331462 -1.575272 -7.599525 -4.131685 7.158782 -0.000054 0.000001 0.000000 0.000000 -0.000001 0.000000 
0.826126 95.876167 0.798590 -1.670670 -0.073684 -1.369474 1.079321 -0.068738 -0.035639 1.238240 -2.367496 0.065748 1.236527 -2.364209 0.114448 -2.415304 0.829470 -1.312022 -2.433162 0.792508 -1.334863 -0.000000 0.000000 -0.000000 -0.338439 7.145291 -0.370283 2.353471 -24.629438 -70.536026 0.000004 -29.165178 -0.000024 -0.000002 -0.000001 0.000001 1.097180 2.954243 -3.451942 -2.725263 25.803729 74.953792 -0.000020 27.245717 0.000024 -0.000001 -0.000003 -0.000000 -8.368691 4.153664 2.400546 24.613973 9.070243 0.607382 -14.329626 2.963152 -3.160257 -0.471421 0.000006 -0.000002 0.000000 -0.000001 -0.000000 -8.326470 -13.798560 -6.132803 18.557877 -4.357557 -1.602806 -7.588445 -4.112020 7.227851 0.000002 0.000006 0.000002 0.000000 0.000001 0.000000 
0.891293 95.864326 0.824132 -1.699908 -0.055037 -1.394109 1.091121 -0.060966 -0.047446 1.262346 -2.350904 0.049221 1.261306 -2.347660 0.098720 -2.340876 0.825916 -1.304556 -2.358701 0.789131 -1.327002 -0.000000 0.000000 0.000000 -0.336010 7.116298 -0.374969 2.369708 -24.568595 -70.508617 0.000007 -29.140193 0.000032 -0.000002 0.000002 -0.000002 1.105905 2.989572 -3.436490 -2.705656 25.839685 74.992595 0.000012 27.271511 0.000003 0.000002 -0.000000 -0.000002 -8.359580 4.051944 2.390732 24.724033 9.110917 0.549063 -14.418717 2.983799 -3.108710 -0.478455 0.000001 -0.000001 -0.000000 -0.000001 0.000000 -8.287642 -13.812508 -6.145747 18.572715 -4.372757 -1.630034 -7.598212 -4.108245 7.295320 -0.000072 -0.000004 -0.000002 0.000000 -0.000002 0.000001 
